<svg width="42" height="26" viewBox="0 0 42 26" fill="none" xmlns="http://www.w3.org/2000/svg">
<path d="M30.3365 15.7072C30.4895 15.8761 30.6443 16.0436 30.7959 16.215C30.8806 16.3126 30.9685 16.3434 31.0807 16.2619C31.5362 15.9377 32.0507 15.7213 32.5514 15.4774C33.0305 15.2443 33.4852 14.976 33.8639 14.5889C33.9632 14.4961 34.0384 14.3815 34.0831 14.2545C34.1279 14.1275 34.1409 13.9919 34.1211 13.859C34.0431 13.2086 34.2524 12.62 34.6297 12.1064C35.2099 11.3097 36.4797 11.3565 37.0802 12.0788C37.4024 12.464 37.5271 12.9133 37.6052 13.3884C37.9386 15.3959 36.4029 16.7601 35.0891 17.0201C34.1179 17.2126 33.2286 17.6248 32.3506 18.0613C32.0835 18.1936 32.073 18.3823 32.1668 18.6231C32.4602 19.3729 32.4562 20.1433 32.2843 20.9123C32.2016 21.2796 32.0736 21.6513 31.8249 21.9434C31.4601 22.3754 31.4614 22.8697 31.4732 23.3782C31.4818 23.5135 31.4366 23.6469 31.3472 23.7505C30.9226 24.2898 30.3503 24.4458 29.7006 24.569C28.8613 24.7276 28.083 24.639 27.2955 24.3598C26.8558 24.2031 26.3813 24.2769 25.9233 24.2763C25.1653 24.2763 24.408 24.3148 23.65 24.3302C23.5056 24.3302 23.3816 24.3533 23.2714 24.4554C22.9137 24.7873 22.5009 24.96 21.9943 24.8887C21.6977 24.8464 21.407 24.9228 21.1221 24.9966C20.7452 25.0994 20.3421 25.055 19.998 24.8727C19.937 24.8363 19.8681 24.8143 19.7969 24.8086C19.7257 24.8028 19.6541 24.8133 19.5878 24.8393C19.0628 25.0242 18.6074 24.8887 18.2556 24.4689C18.15 24.3405 18.0522 24.2121 17.9387 24.0921C17.7346 23.8789 17.5049 23.9046 17.3481 24.1511C17.3037 24.2193 17.2653 24.2911 17.2332 24.3655C17.0409 24.8406 16.6866 25.0614 16.1648 25.0512C15.8938 25.0454 15.6398 25.1487 15.3964 25.2438C15.0971 25.3638 14.8025 25.4126 14.4835 25.3195C14.0353 25.1911 13.5648 25.2906 13.1113 25.2142C11.9241 25.0139 11.705 24.2859 11.8244 23.4661C11.9058 22.9076 11.9176 22.8684 11.346 22.8883C10.5906 22.9134 9.86549 22.6784 9.11474 22.7067C8.91786 22.7144 8.80105 22.7612 8.72099 22.9545C8.57274 23.3154 8.35103 23.643 8.06933 23.9174C7.89477 24.0863 7.70511 24.18 7.45574 24.1691C7.12302 24.155 6.80474 24.1845 6.5068 24.3739C6.23183 24.5491 5.90174 24.5402 5.5933 24.4875C5.29399 24.4361 4.98732 24.442 4.6903 24.5048C4.05177 24.6332 3.48805 24.32 3.34105 23.6972C3.1304 22.8068 3.25049 21.9639 4.03733 21.3733C4.74477 20.8417 5.18971 20.1689 5.51652 19.3697C6.17277 17.7602 6.88808 16.1714 7.57321 14.5716C7.68871 14.3026 7.68083 14.0618 7.4774 13.8012C6.65577 12.7374 6.27974 11.5267 6.43593 10.1997C6.58818 8.90163 7.21621 7.81862 8.14218 6.87941C8.93493 6.07116 9.85827 5.42662 10.7888 4.79492C11.4359 4.3558 12.2076 4.17733 12.9761 4.0284C13.173 3.98988 13.3771 3.96869 13.572 3.91733C14.0556 3.78894 14.5236 3.92183 14.9954 3.98153C15.5591 4.05664 16.1182 4.15294 16.6577 4.34489C17.0073 4.4592 17.325 4.65151 17.5856 4.90662C18.1526 5.47926 18.6546 6.10647 19.1954 6.70415C19.4671 7.00267 19.7795 7.25753 20.08 7.52588C20.1132 7.55662 20.1524 7.58049 20.1953 7.59604C20.2381 7.6116 20.2837 7.61852 20.3294 7.6164C20.9489 7.60998 21.5691 7.60741 22.1885 7.60356C22.4589 7.4681 22.749 7.52331 23.0266 7.54771C23.5029 7.5919 23.974 7.67959 24.4336 7.80963C25.2145 8.07156 25.7067 8.57358 25.8216 9.39595C25.8504 9.60074 25.9042 9.80168 25.9167 10.0097C25.8396 10.5771 25.6734 11.1296 25.4239 11.6474C25.7257 11.2724 26.1359 11.2622 26.5618 11.2846C26.6494 11.2853 26.7356 11.3065 26.8131 11.3466C26.8905 11.3868 26.957 11.4445 27.0067 11.5151C27.2106 11.7961 27.3511 12.1162 27.4189 12.4543C27.5114 12.9244 27.5502 13.403 27.5344 13.8814C27.5271 14.2615 27.5475 14.2962 27.9216 14.318C28.5883 14.3571 29.1684 14.6146 29.7315 14.9368C30.0635 15.0941 30.1922 15.4074 30.3365 15.7072Z" fill="#020202"/>
<path d="M24.4537 7.87445C23.7056 7.71653 22.9549 7.57465 22.1838 7.60354C22.0663 6.53208 22.0853 5.47732 22.5578 4.47198C23.4214 2.63208 24.9105 1.54072 26.891 1.10482C28.4109 0.770996 29.8724 1.03228 31.2558 1.74102C31.6357 1.93361 31.9888 2.14803 32.2795 2.45618C32.4364 2.52038 32.5033 2.67959 32.6247 2.78166C33.5445 3.6974 34.1196 4.89123 34.2561 6.16808C34.3795 7.21643 34.0711 8.16719 33.6813 9.11218C33.4376 9.67843 33.147 10.2242 32.8124 10.7441C32.7441 10.8405 32.7068 10.9547 32.705 11.072C32.7033 11.1892 32.7372 11.3044 32.8025 11.4027C32.9929 11.7334 33.2101 12.0492 33.3682 12.3978C33.762 13.2632 33.2934 13.9867 32.7231 14.2801C32.3776 14.4591 31.976 14.5049 31.5977 14.4085C31.4721 14.4092 31.3477 14.3847 31.2321 14.3366C30.6546 14.0483 30.6599 14.0522 30.2517 14.5369C30.1008 14.7153 29.957 14.9099 29.7267 15.0074C29.0875 14.628 28.405 14.3796 27.6497 14.3655C27.4909 14.3623 27.4528 14.3154 27.4528 14.1652C27.4594 13.6067 27.4843 13.0462 27.3484 12.496C27.3168 12.3559 27.2778 12.2175 27.2316 12.0813C26.996 11.4194 26.6259 11.2166 25.9277 11.3751C25.7616 11.4124 25.6652 11.5677 25.5306 11.6576C25.444 11.7147 25.3849 11.8136 25.2025 11.8675C25.5296 11.2877 25.7496 10.6559 25.8522 10.0013C25.9769 9.96344 26.0674 10.0386 26.1547 10.1002C26.7552 10.522 27.4331 10.6471 28.1609 10.7056C29.203 10.7852 30.0673 10.4642 30.8266 9.80808C31.324 9.38053 31.7256 8.87529 31.9711 8.26734C31.9955 8.21834 32.0121 8.16594 32.0203 8.11198C32.0675 7.34739 32.1476 6.5828 31.9422 5.82463C31.8499 5.50041 31.6767 5.2037 31.4382 4.96117C31.1045 4.59747 30.735 4.26676 30.335 3.97381C29.9427 3.69767 29.4704 3.55166 28.9871 3.55717C28.47 3.55075 27.9522 3.55717 27.4344 3.55717C26.9278 3.55717 26.5091 3.78507 26.114 4.06112C25.4093 4.55526 24.8842 5.25651 24.6152 6.0628C24.455 6.51989 24.5653 6.99687 24.5338 7.46359C24.5239 7.60226 24.5751 7.75505 24.4537 7.87445Z" fill="#FDC924"/>
<path d="M31.5972 14.4066C32.0027 14.4066 32.4063 14.4162 32.7699 14.1813C33.3395 13.8121 33.5574 13.2279 33.3605 12.5866C33.2293 12.1738 32.9707 11.831 32.7489 11.4689C32.5763 11.1865 32.5861 10.9496 32.7659 10.6774C33.3502 9.80894 33.7864 8.85344 34.0574 7.84819C34.4315 6.41145 34.1309 5.06651 33.3658 3.80374C33.1394 3.43011 32.8552 3.09757 32.5678 2.77209C32.5599 2.72266 32.573 2.69505 32.6334 2.71559C33.3795 3.38774 33.8324 4.23772 34.1743 5.1551C34.3586 5.63678 34.4846 6.13795 34.5496 6.64834C34.5943 7.02261 34.5234 7.38661 34.4328 7.74676C34.1463 8.91397 33.6833 10.0328 33.0593 11.0664C32.9602 11.2288 32.9753 11.3502 33.0593 11.5107C33.35 12.0525 33.6499 12.5892 33.6919 13.2267C33.7142 13.5855 33.5849 13.8327 33.2896 14.0253C32.9189 14.2679 32.5468 14.4997 32.0795 14.5061C31.9127 14.5139 31.7466 14.4796 31.5972 14.4066V14.4066Z" fill="#9F9066"/>
<path d="M29.728 15.0056C29.9997 14.7019 30.3055 14.4278 30.5122 14.0708C30.572 13.9688 30.6494 14.0009 30.7242 14.0278C30.9162 14.0897 31.0906 14.1948 31.2335 14.3347C30.6428 14.083 30.0371 14.8759 30.2491 15.426C30.2852 15.5178 30.3068 15.6141 30.3351 15.7085C30.1283 15.4774 30.0332 15.1506 29.728 15.0056Z" fill="#BAA45F"/>
<path d="M32.6289 2.7175L32.5632 2.77399C32.4372 2.69439 32.3775 2.55764 32.2771 2.453C32.451 2.4729 32.5252 2.61414 32.6289 2.7175Z" fill="#A09165"/>
<path d="M14.469 19.9995C14.0247 20.499 13.463 20.8739 12.9806 21.3348C12.6709 21.632 12.4464 21.9736 12.2253 22.3247C12.1597 22.4307 12.1104 22.5173 11.9556 22.4974C11.3433 22.4185 10.729 22.3575 10.1181 22.2759C9.71447 22.2214 9.7125 22.2118 9.81357 21.8163C9.96319 21.2321 10.2073 20.6723 10.2729 20.065C10.3386 19.4686 10.2907 18.8716 10.3031 18.2752C10.3064 18.1384 10.2323 18.1063 9.79847 18.0049C9.79847 18.4434 9.79388 18.876 9.79847 19.3087C9.80694 19.9604 9.65358 20.6043 9.35157 21.1852C9.20457 21.4722 9.01097 21.7354 8.84363 22.0127C8.74782 22.172 8.63954 22.1411 8.53191 22.0378C8.39033 21.8895 8.22161 21.7684 8.03447 21.6808C7.99707 21.9684 8.07647 22.2201 8.11388 22.475C8.15129 22.7298 8.16375 22.9731 8.04038 23.2139C7.83104 23.6209 7.48913 23.7872 7.03763 23.6909C7.00625 23.6854 6.97717 23.6711 6.95388 23.6498C6.9306 23.6285 6.9141 23.6011 6.90638 23.5708C6.85585 23.4424 6.78563 23.3269 6.74232 23.1991C6.67669 22.9956 6.56644 22.8884 6.31707 23.0065C6.39319 23.2396 6.46341 23.4854 6.55463 23.7242C6.62025 23.8924 6.57235 23.9374 6.39582 23.965C5.96072 24.0292 5.53679 24.0452 5.11285 23.9008C4.80047 23.7929 4.66529 23.5747 4.641 23.2684C4.62657 23.09 4.60885 22.9115 4.59179 22.7253C4.4205 22.778 4.40147 22.8781 4.40541 23.0226C4.41394 23.3744 4.52354 23.714 4.53666 24.078C4.33979 24.0741 4.18885 23.9842 4.0261 23.9361C3.98607 23.9263 3.94996 23.905 3.92247 23.8749C3.89497 23.8448 3.87735 23.8073 3.87188 23.7673C3.82397 23.4745 3.74063 23.1895 3.74719 22.8852C3.75244 22.5199 3.87188 22.213 4.14094 21.9652C4.39097 21.7367 4.64757 21.5159 4.89825 21.288C5.52497 20.7198 5.83669 19.9758 6.14513 19.2182C6.73575 17.7609 7.35329 16.3139 7.97475 14.8682C8.19591 14.3546 8.22741 14.3418 8.69663 14.6185C9.96975 15.3677 11.3105 15.3368 12.6774 14.9671C14.0208 14.6031 14.9579 13.4623 14.9809 12.1019C14.9907 11.5389 14.7893 10.9849 14.6619 10.4328C14.5438 9.91921 14.3292 9.44094 14.1369 8.95625C13.9821 8.54102 13.8871 8.10673 13.8548 7.66588C13.8456 7.57022 13.8823 7.39753 13.734 7.41936C13.6028 7.43862 13.4177 7.48356 13.4282 7.70375C13.4551 8.25521 13.5076 8.79511 13.7281 9.31768C13.9598 9.86593 14.2144 10.409 14.2688 11.0144C14.3162 11.6002 14.3252 12.1884 14.2958 12.7754C14.278 13.1946 13.9926 13.5079 13.7084 13.7929C13.4395 14.0728 13.1129 14.2938 12.7502 14.4412C12.3875 14.5886 11.997 14.6591 11.6045 14.648C11.1713 14.6429 10.7382 14.6917 10.3058 14.6326C8.97225 14.4522 7.43204 13.477 7.03369 11.8214C6.65175 10.2338 7.05994 8.84647 8.13882 7.62608C8.94929 6.70869 9.92775 5.96785 10.9449 5.30983C12.308 4.4284 13.8397 4.13309 15.4645 4.54459C15.6247 4.58504 15.7881 4.61329 15.9502 4.64474C16.5408 4.75837 16.9923 5.05882 17.4169 5.48766C18.1178 6.19383 18.7064 7.00143 19.465 7.65946C19.845 7.98879 20.2296 8.16854 20.7506 8.14993C21.5906 8.11975 22.4333 8.14993 23.2746 8.1602C23.455 8.1602 23.6289 8.21284 23.8521 8.29373C23.6079 8.32262 23.4242 8.37654 23.2477 8.35793C22.9077 8.32262 22.6951 8.52227 22.596 8.75916C22.4648 9.06988 22.3217 9.4204 22.6275 9.74845C22.8972 10.038 23.1755 10.3153 23.5239 10.5105C23.9833 10.7673 24.4722 10.662 24.9552 10.5894C25.0281 10.5785 25.0989 10.5599 25.1711 10.5483C25.1862 10.5483 25.2039 10.5605 25.2368 10.5747C24.8555 11.3553 24.4716 12.134 23.8619 12.7734C23.5498 13.0861 23.1603 13.3143 22.7312 13.436C21.7258 13.7454 20.7913 14.2147 19.8319 14.6249C19.0234 14.9709 18.2004 15.0948 17.325 14.9138C16.9532 14.8376 16.5723 14.8136 16.1936 14.8425C16.1547 14.8556 16.1204 14.8794 16.0949 14.911C16.0694 14.9427 16.0538 14.9809 16.0499 15.021C15.9574 15.783 15.71 16.5168 15.6352 17.2833C15.6023 17.6171 15.6122 17.9497 15.601 18.2829C15.5892 18.6263 15.5197 18.6725 15.204 18.5499C14.6587 18.3381 14.6272 18.3631 14.6554 18.9236C14.6744 19.292 14.6482 19.6593 14.469 19.9995Z" fill="#C58A01"/>
<path d="M25.9093 15.322C26.0025 15.3798 26.099 15.4331 26.1876 15.4966C26.2762 15.5602 26.437 15.5461 26.4317 15.6796C26.4265 15.8131 26.2644 15.8247 26.162 15.876C26.1051 15.906 26.0466 15.933 25.9868 15.9569C25.6403 16.0853 25.4014 16.2901 25.4237 16.7055C25.7387 16.6772 26.0143 16.5296 26.3064 16.4339C26.8207 16.2545 27.3742 16.2102 27.9116 16.3055C28.1911 16.3569 28.365 16.4904 28.4615 16.7652C28.6669 17.3532 28.5271 17.9047 28.325 18.4536C28.1544 18.9126 27.9404 19.3401 27.5795 19.6996C27.2678 20.011 26.9292 20.1144 26.5052 20.0303C26.3502 20.0093 26.1938 19.9984 26.0373 19.9975C25.8792 19.9866 25.8286 20.1163 25.7886 20.2151C25.7348 20.3435 25.8883 20.3435 25.9579 20.3744C26.8891 20.7859 27.6642 20.5708 28.241 19.7465C28.3394 19.6059 28.4379 19.4647 28.5468 19.3029C28.6656 19.5809 28.6833 19.8524 28.726 20.1144C28.7686 20.3763 28.9727 20.2678 29.0948 20.287C29.2319 20.3089 29.1742 20.1554 29.1762 20.0797C29.1853 19.7272 29.1834 19.3735 29.1853 19.0211C29.251 18.8176 29.3376 18.9312 29.4058 19.0114C29.6808 19.3324 29.8705 19.7041 30.0444 20.0835C30.1333 20.2818 30.2109 20.4848 30.2767 20.6915C30.3974 21.0632 30.3843 21.0863 30.0142 21.1345C29.3022 21.1345 28.5901 21.1415 27.8781 21.1389C27.6749 21.1391 27.4725 21.1641 27.2757 21.2134C26.7231 21.3502 26.3444 22.0801 26.4882 22.7073C26.5641 23.0143 26.6698 23.3135 26.8038 23.6009C26.874 23.7601 26.8347 23.8109 26.6621 23.8102C25.6816 23.8068 24.701 23.8068 23.7201 23.8102C23.6039 23.8102 23.5278 23.7884 23.5232 23.6504C23.4911 22.9994 23.0973 22.5558 22.6182 22.1635C22.5618 22.1167 22.508 22.0672 22.4548 22.0165C22.4299 21.9921 22.4102 21.9626 22.3682 21.9119C22.6858 21.7944 23.0074 21.8836 23.306 21.7983C23.4917 21.745 23.6906 21.727 23.8369 21.5909C23.9025 21.5312 23.9629 21.4355 23.936 21.3495C23.9052 21.2513 23.7929 21.2982 23.7175 21.2982C23.1623 21.2982 22.6064 21.32 22.0526 21.2982C20.2472 21.2301 18.8369 20.4572 17.8526 18.9716C17.5979 18.5803 17.4641 18.1253 17.4673 17.6614C17.4673 17.4521 17.5179 17.3763 17.7436 17.3853C18.1782 17.4037 18.6114 17.3258 19.0108 17.1574C19.2353 17.0637 19.2412 16.9648 19.1027 16.7819C18.8862 16.4994 18.6177 16.2683 18.3539 15.9942C19.5437 15.4844 20.5701 14.7166 21.7907 14.325C22.2501 14.1774 22.7285 14.1401 23.2043 14.1048C23.5316 14.0846 23.8512 13.9991 24.1435 13.8536C24.4358 13.708 24.6946 13.5056 24.904 13.2587C24.9853 13.1733 25.051 13.0745 25.1402 12.9968C25.3502 12.8138 25.446 12.8273 25.534 13.0834C25.6849 13.4988 25.7345 13.9428 25.679 14.3802C25.6632 14.4964 25.6678 14.6165 25.6422 14.7282C25.5806 14.9997 25.6934 15.1801 25.9093 15.322Z" fill="#484848"/>
<path d="M24.4538 7.87442C24.4538 7.38652 24.4322 6.89605 24.4676 6.41008C24.5057 5.87595 24.7806 5.41566 25.0818 4.98553C25.5852 4.2678 26.2362 3.71699 27.1261 3.52183C27.5946 3.41847 28.0829 3.48074 28.5626 3.46983C28.7929 3.46405 29.022 3.48588 29.2549 3.49358C29.7071 3.50835 30.0739 3.71571 30.4362 3.95901C30.8509 4.23699 31.1948 4.5843 31.5275 4.94316C32.1352 5.59477 32.1661 6.41072 32.1497 7.2318C32.141 7.29441 32.1355 7.3574 32.1333 7.42054C32.2028 8.3238 31.7395 8.99082 31.1489 9.61096C30.2807 10.5174 29.2241 10.8776 27.9628 10.7839C27.17 10.7241 26.4888 10.4404 25.8549 10.0019C25.786 9.65847 25.7289 9.31309 25.6344 8.97477C25.5032 8.5042 25.1652 8.2365 24.7504 8.02914C24.6487 7.9765 24.5516 7.92514 24.4538 7.87442Z" fill="#030980"/>
<path d="M14.469 19.9995C14.5658 19.5235 14.6022 19.0377 14.5773 18.5531C14.5661 18.338 14.6482 18.27 14.8549 18.3419C14.9677 18.3817 15.0839 18.4118 15.1942 18.4561C15.5223 18.5884 15.5354 18.5897 15.519 18.2552C15.4757 17.3372 15.6817 16.4525 15.8747 15.5653C15.9148 15.3908 15.9446 15.2142 15.9639 15.0363C15.9784 14.8861 16.0447 14.8232 16.1949 14.8438C16.1214 15.1057 16.2566 15.3182 16.5067 15.3317L17.8192 15.3991C17.8192 15.4228 17.8251 15.4369 17.8224 15.4382C17.2764 15.7143 17.1773 16.2234 17.1091 16.7485C17.0612 17.1144 16.9995 17.4791 16.9634 17.8456C16.8761 18.7367 17.2594 19.4596 17.8342 20.1079C18.1058 20.4039 18.4043 20.6751 18.7261 20.9181C18.8211 20.9896 18.9122 21.0659 18.9991 21.1467C19.32 21.4529 19.3147 21.4837 18.9171 21.6602C18.3566 21.9119 17.768 22.0994 17.2239 22.3902C17.1291 22.4332 17.0483 22.5009 16.9904 22.586C16.9325 22.6711 16.8998 22.7702 16.8958 22.8723C16.8479 23.3185 16.8899 23.7756 16.7455 24.2115C16.6871 24.3867 16.6327 24.5613 16.399 24.5594C16.1437 24.5594 15.8563 24.6319 15.7828 24.2493C15.7306 24.0211 15.6563 23.7982 15.561 23.5836C15.5328 23.5136 15.5682 23.3827 15.4232 23.3839C15.3169 23.262 15.3799 23.1227 15.3943 22.9956C15.5026 22.0076 15.4074 21.0176 15.4501 20.0084C15.2532 20.0393 15.1666 20.2485 14.9743 20.2171L15.1994 19.6098C15.309 19.3125 15.2394 19.0159 15.1712 18.7283C15.1193 18.5107 14.9087 18.5999 14.7709 18.6141C14.6331 18.6282 14.6961 18.7521 14.7243 18.8285C14.8864 19.2702 14.7945 19.6586 14.469 19.9995Z" fill="#A47301"/>
<path d="M35.8832 12.1134C36.3426 12.1134 36.6189 12.3779 36.7934 12.7483C37.5376 14.3263 36.6845 15.9852 34.952 16.4275C33.8788 16.6932 32.843 17.0864 31.8676 17.5984C31.6642 17.7063 31.5237 17.7429 31.445 17.4662C31.4174 17.3712 31.3223 17.2884 31.3019 17.1824C31.2856 17.1184 31.2876 17.0511 31.3079 16.9881C31.3282 16.9251 31.3658 16.8689 31.4168 16.8255C31.7488 16.491 32.1623 16.2984 32.5809 16.1129C33.121 15.8735 33.6349 15.5916 34.0831 15.2141C34.467 14.8887 34.656 14.456 34.7354 13.9655C34.7925 13.6182 34.7499 13.2625 34.8437 12.9197C34.9553 12.5069 35.4593 12.1153 35.8832 12.1134Z" fill="#3A3A3A"/>
<path d="M30.0116 21.1326C30.3155 21.0973 30.2997 20.9432 30.2131 20.7082C29.9992 20.1304 29.7596 19.5655 29.3692 19.0763C29.3331 19.0314 29.2983 18.8715 29.1854 19.0192C29.2136 18.2045 29.0876 17.4046 28.9616 16.6034C28.9105 16.278 28.7713 16.0507 28.4439 15.9409C28.2181 15.8652 28.0075 15.7483 27.7699 15.7015C27.5323 15.6546 27.4582 15.5358 27.5638 15.3163C27.589 15.2677 27.6058 15.2154 27.6137 15.1616C27.6327 14.969 27.7207 14.9375 27.9136 14.969C29.0516 15.1616 29.866 15.8433 30.5255 16.6978C31.0334 17.3552 31.4948 18.0652 31.7231 18.8728C31.9745 19.762 31.9916 20.6498 31.5191 21.4946C31.3412 21.8156 31.2986 21.8246 31.0361 21.5659C30.7519 21.2886 30.4389 21.0844 30.0116 21.1326Z" fill="#3A3A3A"/>
<path d="M14.973 20.2151L15.5301 19.7831C15.4796 21.0131 15.6168 22.2008 15.4218 23.382C15.3775 23.7512 15.4172 24.1254 15.538 24.4778C15.5971 24.6435 15.538 24.6936 15.4068 24.7622C14.9178 25.0133 14.4624 24.8958 14.0109 24.6679C13.9778 24.6521 13.9507 24.6264 13.9335 24.5945C13.9163 24.5627 13.9098 24.5263 13.9151 24.4907C13.9197 24.0856 13.8672 23.6773 13.9958 23.2799C14.0175 23.2125 14.0923 23.1136 13.9427 23.0976C13.8357 23.0867 13.7117 23.0661 13.711 23.2401C13.711 23.6651 13.6867 24.0907 13.6992 24.5151C13.7051 24.7282 13.6467 24.8162 13.4255 24.7757C13.2457 24.743 13.0548 24.7411 12.8861 24.6801C12.4359 24.517 12.3093 24.2949 12.3683 23.7813C12.4078 23.386 12.5115 22.9994 12.6754 22.636C12.9668 22.0101 13.4826 21.5729 13.984 21.1235C14.3148 20.8224 14.6849 20.5618 14.973 20.2151Z" fill="#C48A02"/>
<path d="M21.8452 23.1202C21.8452 23.3724 21.8452 23.6036 21.8452 23.8347C21.8452 23.938 21.8321 24.035 21.7422 24.103C21.3773 24.3803 20.9849 24.5755 20.5032 24.5659C20.3267 24.562 20.2847 24.4965 20.2873 24.3399C20.2979 23.8872 20.285 23.4342 20.2486 22.9828C19.9644 23.1484 19.9861 23.4322 19.9113 23.6742C19.907 23.7011 19.9056 23.7285 19.9073 23.7557C19.8883 24.173 19.7164 24.3521 19.2931 24.3977C18.8993 24.4388 18.6539 24.2648 18.5712 23.8623C18.4776 23.428 18.4916 22.978 18.6119 22.5501C18.709 22.2021 19.3272 21.8818 19.7531 21.9723C20.3629 22.1106 20.9839 22.1966 21.609 22.2291C21.8492 22.2394 22.046 22.3633 22.2245 22.5109C22.3158 22.5867 22.3873 22.6887 22.487 22.7529C22.9609 23.0624 23.012 23.5163 22.9648 24.0144C22.955 24.1191 22.9221 24.1833 22.8263 24.2211C22.8007 24.2314 22.7765 24.2449 22.7502 24.2539C22.5264 24.3322 22.2488 24.5107 22.0808 24.406C21.9437 24.3213 22.1268 24.0176 22.1622 23.8109C22.2232 23.4322 22.2049 23.357 21.8452 23.1202Z" fill="#484848"/>
<path d="M29.5798 22.7195C29.5798 23.0931 29.5502 23.4199 29.5909 23.7383C29.6139 23.9161 29.5522 23.9861 29.4262 24.0593C29.0981 24.2442 28.7437 24.1748 28.3966 24.1774C28.2732 24.1774 28.304 24.0708 28.2883 23.9951C28.2227 23.6786 28.2535 23.3531 28.157 23.0186C27.9812 23.3923 27.9424 23.8185 27.5946 24.1158C27.3137 23.5855 27.1228 23.0315 26.9174 22.4858C26.8432 22.2894 27.2357 21.7828 27.4883 21.7347C28.0565 21.6273 28.6313 21.5563 29.209 21.5222C29.6231 21.4965 30.0116 21.6204 30.3902 21.761C30.7052 21.8772 31.0708 22.5648 31.0052 22.8999C30.9467 23.1997 30.8687 23.4963 30.7984 23.7941C30.7879 23.8372 30.7827 23.9129 30.7617 23.918C30.5248 23.9726 30.2971 23.893 30.0661 23.8583C29.9296 23.8372 29.9571 23.7383 29.9499 23.6516C29.9342 23.4539 29.9125 23.2568 29.9027 23.0591C29.8915 22.8736 29.7169 22.8543 29.5798 22.7195Z" fill="#474747"/>
<path d="M25.9093 15.322C25.6527 15.27 25.5464 15.1294 25.5661 14.8617C25.6055 14.334 25.6855 13.8031 25.5169 13.2812C25.4782 13.1611 25.4335 13.0436 25.3824 12.9005L24.8967 13.2581C25.2176 12.6668 25.6304 12.1635 26.2611 11.8579C26.4245 11.779 26.4986 11.8098 26.578 11.9664C26.7828 12.3683 26.9127 12.783 26.9062 13.2362C26.8937 13.832 26.979 14.4194 27.0597 15.0075C27.0675 15.1319 27.0675 15.2567 27.0597 15.3811L26.2164 14.8977C26.1572 14.855 26.092 14.8208 26.0229 14.7962C25.9054 14.7699 25.7991 14.8399 25.7262 14.9112C25.6389 14.9972 25.7518 15.0704 25.7997 15.1391C25.8476 15.2077 25.9021 15.2437 25.9093 15.322Z" fill="#3A3A3A"/>
<path d="M29.6834 11.1023C29.6178 10.9386 29.7169 10.8667 29.8494 10.7935C30.1526 10.6247 30.4499 10.445 30.7478 10.2665C31.0648 10.0771 31.2728 10.1002 31.4658 10.4077C31.8077 10.9521 32.122 11.5126 32.4501 12.0653C32.4961 12.1423 32.5204 12.2001 32.4173 12.2579C31.9547 12.5301 31.5091 12.8357 30.9736 12.9641C30.8056 13.0045 30.7111 12.9846 30.6179 12.8241C30.3554 12.3696 30.0752 11.9253 29.7943 11.4824C29.7175 11.363 29.6525 11.25 29.6834 11.1023Z" fill="#010882"/>
<path d="M31.9593 13.8024C31.6154 13.8249 31.3142 13.8307 31.1502 13.493C31.1101 13.4095 31.0648 13.3595 31.1797 13.31C31.6719 13.0969 32.0984 12.7644 32.6044 12.5737C32.7586 12.5153 32.8479 12.5326 32.8275 12.7156C32.8013 12.9473 32.9115 13.1816 32.7389 13.414C32.525 13.6946 32.3097 13.9045 31.9593 13.8024Z" fill="#04097F"/>
<path d="M18.2811 8.24174C18.3605 8.46001 18.2621 8.52421 18.1125 8.5807C17.8638 8.67315 17.6255 8.79255 17.3788 8.89013C17.1628 8.97749 16.9877 9.14014 16.8873 9.34658C16.7829 9.55073 16.6451 9.60337 16.4226 9.56806C15.8976 9.48717 15.8576 9.43966 16.1247 8.98001C16.5841 8.18974 17.2292 7.86169 18.1722 7.99008C18.3993 8.02475 18.2437 8.19423 18.2811 8.24174Z" fill="#050202"/>
<path d="M22.1472 16.1862C22.5022 16.1547 22.724 16.3023 22.8546 16.6278C23.0036 16.9995 23.1506 17.368 23.1283 17.7776C23.1291 17.8587 23.1147 17.9392 23.0856 18.0151C23.037 18.1256 23.02 18.3169 22.8776 18.2758C22.7352 18.2347 22.579 18.1474 22.5678 17.9375C22.5553 17.7166 22.5376 17.4939 22.3978 17.2955C22.1419 16.927 21.8203 16.7286 21.3478 16.7947C21.2166 16.8127 21.0637 16.8384 21.063 16.6131C21.063 16.4372 21.0538 16.2921 21.2934 16.276C21.5802 16.2542 21.8637 16.2163 22.1472 16.1862Z" fill="black"/>
<path d="M23.052 19.6714C22.3669 19.4429 21.8373 19.0185 21.2289 18.738C20.9008 18.5878 20.5806 18.4337 20.2327 18.34C20.0835 18.2933 19.9434 18.2221 19.8186 18.1294C19.7438 18.0787 19.6552 18.019 19.7058 17.9105C19.7563 17.802 19.8587 17.8675 19.9256 17.8848C20.2217 17.9506 20.5099 18.0468 20.7853 18.1718C21.3687 18.4639 21.9534 18.7534 22.5296 19.0577C22.6546 19.1201 22.7653 19.2067 22.8551 19.3122C22.9449 19.4177 23.0119 19.5399 23.052 19.6714V19.6714Z" fill="#2A2A2A"/>
<path d="M19.5832 18.46C19.9495 18.5241 20.2982 18.662 20.607 18.8651C21.2094 19.2348 21.759 19.6813 22.241 20.1927C22.287 20.2422 22.4379 20.2858 22.3165 20.3853C22.2286 20.4579 22.1282 20.5099 22.0022 20.393C21.6137 20.0343 21.2021 19.7004 20.7697 19.3935C20.456 19.1694 20.0964 19.025 19.7729 18.8157C19.679 18.7554 19.5806 18.7001 19.5366 18.5968C19.5117 18.5422 19.4828 18.4472 19.5832 18.46Z" fill="#2C2C2C"/>
<path d="M31.0676 7.17539C31.1989 7.83084 30.8891 8.33479 30.4993 8.8105C30.117 9.29207 29.5727 9.6257 28.963 9.75228C27.283 10.1034 25.477 9.06793 25.4252 7.10605C25.4094 6.48688 25.6121 5.88128 25.9991 5.39107C26.3861 4.90086 26.9338 4.55592 27.5501 4.41425C29.0365 4.08299 30.4107 4.72946 30.9705 6.11099C31.1116 6.45958 31.0564 6.82294 31.0676 7.17539Z" fill="#FEC924"/>
</svg>
