<svg width="28" height="28" viewBox="0 0 28 28" fill="none" xmlns="http://www.w3.org/2000/svg">
<path d="M24.7741 1.02579H2.41271C1.64678 1.02579 1.02588 1.64669 1.02588 2.41262V24.774C1.02588 25.5399 1.64678 26.1608 2.41271 26.1608H24.7741C25.54 26.1608 26.1609 25.5399 26.1609 24.774V2.41262C26.1609 1.64669 25.54 1.02579 24.7741 1.02579Z" fill="white"/>
<path d="M18.3664 26.1587V16.4254H21.6328L22.1213 12.6323H18.3664V10.2112C18.3664 9.11317 18.6723 8.36347 20.246 8.36347H22.2551V4.96541C21.2822 4.86402 20.3045 4.81581 19.3264 4.821C16.4338 4.821 14.4417 6.58374 14.4417 9.83526V12.6323H11.1753V16.4254H14.4417V26.1587H18.3664Z" fill="black"/>
</svg>
