<svg width="28" height="28" viewBox="0 0 28 28" fill="none" xmlns="http://www.w3.org/2000/svg">
<g clip-path="url(#clip0_54_43)">
<path d="M9.46992 0.894109C6.75377 1.83637 4.41137 3.6248 2.78677 5.99672C1.16217 8.36864 0.341018 11.199 0.443918 14.0721C0.546817 16.9452 1.56835 19.7096 3.35846 21.9592C5.14858 24.2089 7.61292 25.8252 10.3895 26.5707C12.6406 27.1515 14.999 27.177 17.2621 26.645C19.3122 26.1845 21.2076 25.1995 22.7627 23.7864C24.3812 22.2708 25.556 20.3426 26.1608 18.2093C26.8179 15.8894 26.9349 13.4498 26.5027 11.0777H13.8619V16.3213H21.1826C21.0363 17.1576 20.7228 17.9558 20.2608 18.6681C19.7988 19.3805 19.1978 19.9923 18.4939 20.4669C17.6001 21.0585 16.5923 21.4564 15.5355 21.635C14.4756 21.8321 13.3884 21.8321 12.3285 21.635C11.2542 21.4131 10.238 20.9698 9.34461 20.3331C7.90925 19.3171 6.83149 17.8736 6.26513 16.2087C5.68934 14.5126 5.68934 12.6739 6.26513 10.9778C6.66828 9.78899 7.33474 8.70653 8.21476 7.81128C9.22184 6.76796 10.4968 6.0222 11.8999 5.6558C13.3029 5.2894 14.7797 5.31653 16.1683 5.73422C17.2532 6.06707 18.2452 6.64889 19.0652 7.43325C19.8906 6.61205 20.7147 5.78873 21.5373 4.96328C21.962 4.51941 22.425 4.09678 22.8434 3.64229C21.5915 2.47743 20.1221 1.57097 18.5194 0.974813C15.6007 -0.0849779 12.4071 -0.113459 9.46992 0.894109Z" fill="white"/>
<path d="M9.46988 0.894119C12.4068 -0.114134 15.6004 -0.0864026 18.5193 0.972699C20.1223 1.5729 21.5911 2.48373 22.8412 3.65292C22.4165 4.10741 21.9684 4.53216 21.5351 4.97391C20.7111 5.79653 19.8878 6.61631 19.0651 7.43326C18.2451 6.6489 17.2531 6.06707 16.1683 5.73423C14.7801 5.31508 13.3034 5.28638 11.9 5.65128C10.4966 6.01618 9.22078 6.76057 8.2126 7.8028C7.33257 8.69805 6.66611 9.7805 6.26296 10.9694L1.86035 7.56068C3.43622 4.43566 6.16473 2.04526 9.46988 0.894119Z" fill="white"/>
<path d="M0.692299 10.9375C0.92876 9.76469 1.32163 8.62893 1.86038 7.56068L6.26299 10.9779C5.68721 12.674 5.68721 14.5126 6.26299 16.2087C4.79616 17.3414 3.32863 18.4798 1.86038 19.6238C0.512097 16.94 0.100893 13.8821 0.692299 10.9375Z" fill="white"/>
<path d="M13.862 11.0755H26.5028C26.935 13.4477 26.818 15.8873 26.1609 18.2072C25.5561 20.3405 24.3813 22.2686 22.7628 23.7843C21.342 22.6757 19.9148 21.5755 18.494 20.4669C19.1984 19.9918 19.7996 19.3793 20.2617 18.6662C20.7237 17.9532 21.0369 17.1541 21.1827 16.3171H13.862C13.8599 14.5713 13.862 12.8234 13.862 11.0755Z" fill="white"/>
<path d="M1.8584 19.6238C3.32664 18.4911 4.79418 17.3528 6.26101 16.2087C6.8285 17.8742 7.9078 19.3177 9.34475 20.3331C10.2409 20.9668 11.2593 21.4066 12.335 21.6244C13.3949 21.8215 14.4821 21.8215 15.542 21.6244C16.5988 21.4458 17.6066 21.0479 18.5004 20.4563C19.9212 21.5649 21.3484 22.6651 22.7692 23.7737C21.2144 25.1875 19.3189 26.1733 17.2686 26.6344C15.0055 27.1664 12.6471 27.1409 10.396 26.5601C8.61565 26.0847 6.95267 25.2467 5.51131 24.0986C3.98585 22.8872 2.73984 21.3609 1.8584 19.6238Z" fill="white"/>
</g>
<defs>
<clipPath id="clip0_54_43">
<rect width="27.1845" height="27.1845" fill="white"/>
</clipPath>
</defs>
</svg>
