<svg width="20" height="18" viewBox="0 0 20 18" fill="none" xmlns="http://www.w3.org/2000/svg">
<path d="M15.4444 8.10001H4.55556C3.69645 8.10001 3 8.83263 3 9.73637V15.4636C3 16.3674 3.69645 17.1 4.55556 17.1H15.4444C16.3036 17.1 17 16.3674 17 15.4636V9.73637C17 8.83263 16.3036 8.10001 15.4444 8.10001Z" stroke="#948F99" stroke-width="1.5" stroke-linecap="round" stroke-linejoin="round"/>
<path d="M6 8.09999V4.89999C6 3.83913 6.42143 2.82171 7.17157 2.07157C7.92172 1.32142 8.93913 0.899994 10 0.899994C11.0609 0.899994 12.0783 1.32142 12.8284 2.07157C13.5786 2.82171 14 3.83913 14 4.89999V8.09999" stroke="#948F99" stroke-width="1.5" stroke-linecap="round" stroke-linejoin="round"/>
</svg>
