<svg id="Camada_1" data-name="Camada 1" xmlns="http://www.w3.org/2000/svg" viewBox="0 0 640 405"><defs><style>.cls-1{fill:#fefefe;}.cls-2{fill:#dfdfdf;}.cls-3{fill:#e0e0e0;}.cls-4{fill:#ddd;}.cls-5{fill:#020202;}.cls-6{fill:#fdc924;}.cls-7{fill:#9f9066;}.cls-8{fill:#baa45f;}.cls-9{fill:#a09165;}.cls-10{fill:#c58a01;}.cls-11{fill:#484848;}.cls-12{fill:#030980;}.cls-13{fill:#a47301;}.cls-14{fill:#3a3a3a;}.cls-15{fill:#c48a02;}.cls-16{fill:#474747;}.cls-17{fill:#010882;}.cls-18{fill:#04097f;}.cls-19{fill:#050202;}.cls-20{fill:#2a2a2a;}.cls-21{fill:#2c2c2c;}.cls-22{fill:#fec924;}</style></defs><title>miauchei</title><path class="cls-1" d="M283.91,404.59h-6.77a14.45,14.45,0,0,0-7.61,0h-6.77a14.45,14.45,0,0,0-7.61,0h-7.62a14.45,14.45,0,0,0-7.61,0h-6.77a14.45,14.45,0,0,0-7.61,0h-6.77a11,11,0,0,0-6.76,0h-6.77a16.84,16.84,0,0,0-8.46,0H190a14.45,14.45,0,0,0-7.61,0h-6.77a14.45,14.45,0,0,0-7.61,0h-6.77a14.45,14.45,0,0,0-7.61,0h-6.77a14.45,14.45,0,0,0-7.61,0h-6.77a14.45,14.45,0,0,0-7.61,0h-6.77a14.45,14.45,0,0,0-7.61,0h-6.77a14.45,14.45,0,0,0-7.61,0H89.35a16.84,16.84,0,0,0-8.46,0H75a14.45,14.45,0,0,0-7.61,0H60.59a14.45,14.45,0,0,0-7.61,0H46.21a14.45,14.45,0,0,0-7.61,0H31.83a16.84,16.84,0,0,0-8.46,0H16.61a14.49,14.49,0,0,0-7.62,0c-2.81,0-6.73,1.1-8.14-.31S.54,399,.54,396.13Q.53,200.07.43,4c0-3.63,1-4,4.21-4Q320.28.14,635.91,0c3.24,0,4.22.38,4.22,4q-.2,198.6-.12,397.2c0,1.7.87,4.17-2.53,3.38a14.45,14.45,0,0,0-7.61,0H623.1a14.45,14.45,0,0,0-7.61,0h-6.77a14.45,14.45,0,0,0-7.61,0h-6.77a16.8,16.8,0,0,0-8.45,0h-6.77a11,11,0,0,0-6.77,0h-6.77a14.45,14.45,0,0,0-7.61,0H551.2a14.45,14.45,0,0,0-7.61,0h-6.77a16.8,16.8,0,0,0-8.45,0H521.6a14.45,14.45,0,0,0-7.61,0h-6.77a11,11,0,0,0-6.77,0h-6.77a14.45,14.45,0,0,0-7.61,0H479.3a16.8,16.8,0,0,0-8.45,0h-6.77a14.45,14.45,0,0,0-7.61,0H449.7a14.45,14.45,0,0,0-7.61,0h-6.77a11,11,0,0,0-6.77,0h-7.61a14.45,14.45,0,0,0-7.61,0h-6.77a14.45,14.45,0,0,0-7.61,0h-6.77a14.45,14.45,0,0,0-7.61,0H377.8a14.45,14.45,0,0,0-7.61,0h-7.62a11,11,0,0,0-6.76,0H349a14.45,14.45,0,0,0-7.61,0h-6.77a14.45,14.45,0,0,0-7.61,0h-6.77a14.45,14.45,0,0,0-7.61,0h-7.62a14.45,14.45,0,0,0-7.61,0h-6.77A11,11,0,0,0,283.91,404.59Z"/><path class="cls-2" d="M80.89,404.59a9.5,9.5,0,0,1,8.46,0Z"/><path class="cls-2" d="M23.37,404.59a9.5,9.5,0,0,1,8.46,0Z"/><path class="cls-2" d="M196.78,404.59a9.5,9.5,0,0,1,8.46,0Z"/><path class="cls-3" d="M470.85,404.59a9.45,9.45,0,0,1,8.45,0Z"/><path class="cls-2" d="M528.37,404.59a9.48,9.48,0,0,1,8.45,0Z"/><path class="cls-2" d="M585.89,404.59a9.48,9.48,0,0,1,8.45,0Z"/><path class="cls-2" d="M96.12,404.59a7.63,7.63,0,0,1,7.61,0Z"/><path class="cls-2" d="M110.5,404.59a7.63,7.63,0,0,1,7.61,0Z"/><path class="cls-2" d="M124.88,404.59a7.63,7.63,0,0,1,7.61,0Z"/><path class="cls-4" d="M139.26,404.59a7.66,7.66,0,0,1,7.61,0Z"/><path class="cls-2" d="M153.64,404.59a7.63,7.63,0,0,1,7.61,0Z"/><path class="cls-2" d="M168,404.59a7.63,7.63,0,0,1,7.61,0Z"/><path class="cls-2" d="M182.4,404.59a7.63,7.63,0,0,1,7.61,0Z"/><path class="cls-2" d="M9,404.59a7.65,7.65,0,0,1,7.62,0Z"/><path class="cls-2" d="M225.54,404.59a7.63,7.63,0,0,1,7.61,0Z"/><path class="cls-2" d="M239.92,404.59a7.63,7.63,0,0,1,7.61,0Z"/><path class="cls-2" d="M255.15,404.59a7.63,7.63,0,0,1,7.61,0Z"/><path class="cls-2" d="M269.53,404.59a7.63,7.63,0,0,1,7.61,0Z"/><path class="cls-2" d="M297.44,404.59a7.63,7.63,0,0,1,7.61,0Z"/><path class="cls-2" d="M312.67,404.59a7.63,7.63,0,0,1,7.61,0Z"/><path class="cls-2" d="M327.05,404.59a7.63,7.63,0,0,1,7.61,0Z"/><path class="cls-2" d="M341.43,404.59a7.63,7.63,0,0,1,7.61,0Z"/><path class="cls-2" d="M370.19,404.59a7.63,7.63,0,0,1,7.61,0Z"/><path class="cls-2" d="M384.57,404.59a7.63,7.63,0,0,1,7.61,0Z"/><path class="cls-2" d="M399,404.59a7.63,7.63,0,0,1,7.61,0Z"/><path class="cls-2" d="M413.33,404.59a7.63,7.63,0,0,1,7.61,0Z"/><path class="cls-2" d="M442.09,404.59a7.63,7.63,0,0,1,7.61,0Z"/><path class="cls-2" d="M456.47,404.59a7.63,7.63,0,0,1,7.61,0Z"/><path class="cls-2" d="M38.6,404.59a7.63,7.63,0,0,1,7.61,0Z"/><path class="cls-2" d="M486.07,404.59a7.63,7.63,0,0,1,7.61,0Z"/><path class="cls-2" d="M514,404.59a7.63,7.63,0,0,1,7.61,0Z"/><path class="cls-2" d="M53,404.59a7.63,7.63,0,0,1,7.61,0Z"/><path class="cls-2" d="M543.59,404.59a7.63,7.63,0,0,1,7.61,0Z"/><path class="cls-2" d="M558,404.59a7.63,7.63,0,0,1,7.61,0Z"/><path class="cls-2" d="M67.36,404.59a7.63,7.63,0,0,1,7.61,0Z"/><path class="cls-2" d="M601.11,404.59a7.63,7.63,0,0,1,7.61,0Z"/><path class="cls-2" d="M615.49,404.59a7.63,7.63,0,0,1,7.61,0Z"/><path class="cls-2" d="M629.87,404.59a7.63,7.63,0,0,1,7.61,0Z"/><path class="cls-2" d="M428.55,404.59a6.32,6.32,0,0,1,6.77,0Z"/><path class="cls-2" d="M572.35,404.59a6.32,6.32,0,0,1,6.77,0Z"/><path class="cls-2" d="M500.45,404.59a6.32,6.32,0,0,1,6.77,0Z"/><path class="cls-2" d="M283.91,404.59a6.31,6.31,0,0,1,6.76,0Z"/><path class="cls-2" d="M355.81,404.59a6.31,6.31,0,0,1,6.76,0Z"/><path class="cls-2" d="M212,404.59a6.31,6.31,0,0,1,6.76,0Z"/><path class="cls-5" d="M462.27,244.67c2.33,2.63,4.69,5.24,7,7.91,1.29,1.52,2.63,2,4.34.73,6.94-5.05,14.78-8.42,22.41-12.22,7.3-3.63,14.23-7.81,20-13.84a13.11,13.11,0,0,0,3.92-11.37c-1.19-10.13,2-19.3,7.75-27.3,8.84-12.41,28.19-11.68,37.34-.43,4.91,6,6.81,13,8,20.4,5.08,31.27-18.32,52.52-38.34,56.57-14.8,3-28.35,9.42-41.73,16.22-4.07,2.06-4.23,5-2.8,8.75,4.47,11.68,4.41,23.68,1.79,35.66-1.26,5.72-3.21,11.51-7,16.06-5.56,6.73-5.54,14.43-5.36,22.35a8.2,8.2,0,0,1-1.92,5.8c-6.47,8.4-15.19,10.83-25.09,12.75-12.79,2.47-24.65,1.09-36.65-3.26-6.7-2.44-13.93-1.29-20.91-1.3-11.55,0-23.09.6-34.64.84-2.2,0-4.09.36-5.77,1.95-5.45,5.17-11.74,7.86-19.46,6.75-4.52-.66-8.95.53-13.29,1.68a23,23,0,0,1-17.13-1.93,7,7,0,0,0-6.25-.52c-8,2.88-14.94.77-20.3-5.77-1.61-2-3.1-4-4.83-5.87-3.11-3.32-6.61-2.92-9,.92a22.6,22.6,0,0,0-1.75,3.34c-2.93,7.4-8.33,10.84-16.28,10.68-4.13-.09-8,1.52-11.71,3-4.56,1.87-9.05,2.63-13.91,1.18-6.83-2-14-.45-20.91-1.64-18.09-3.12-21.43-14.46-19.61-27.23,1.24-8.7,1.42-9.31-7.29-9-11.51.39-22.56-3.27-34-2.83-3,.12-4.78.85-6,3.86a44.69,44.69,0,0,1-9.93,15c-2.66,2.63-5.55,4.09-9.35,3.92-5.07-.22-9.92.24-14.46,3.19-4.19,2.73-9.22,2.59-13.92,1.77a35.78,35.78,0,0,0-13.76.27c-9.73,2-18.32-2.88-20.56-12.58-3.21-13.87-1.38-27,10.61-36.2,10.78-8.28,17.56-18.76,22.54-31.21,10-25.07,20.9-49.82,31.34-74.74,1.76-4.19,1.64-7.94-1.46-12-12.52-16.57-18.25-35.43-15.87-56.1,2.32-20.22,11.89-37.09,26-51.72,12.08-12.59,26.15-22.63,40.33-32.47,9.86-6.84,21.62-9.62,33.33-11.94,3-.6,6.11-.93,9.08-1.73,7.37-2,14.5.07,21.69,1,8.59,1.17,17.11,2.67,25.33,5.66a36.22,36.22,0,0,1,14.14,8.75c8.64,8.92,16.29,18.69,24.53,28,4.14,4.65,8.9,8.62,13.48,12.8a5.17,5.17,0,0,0,3.8,1.41c9.44-.1,18.89-.14,28.33-.2,4.12-2.11,8.54-1.25,12.77-.87a116.89,116.89,0,0,1,21.44,4.08c11.9,4.08,19.4,11.9,21.15,24.71.44,3.19,1.26,6.32,1.45,9.56a86.58,86.58,0,0,1-7.51,25.51c4.6-5.84,10.85-6,17.34-5.65a8.31,8.31,0,0,1,6.78,3.59A37.88,37.88,0,0,1,417.81,194a100.36,100.36,0,0,1,1.76,22.23c-.11,5.92.2,6.46,5.9,6.8,10.16.61,19,4.62,27.58,9.64C458.11,235.12,460.07,240,462.27,244.67Z"/><path class="cls-6" d="M372.63,122.66c-11.4-2.46-22.84-4.67-34.59-4.22-1.79-16.69-1.5-33.12,5.7-48.78C356.9,41,379.59,24,409.77,17.21c23.16-5.2,45.43-1.13,66.51,9.91,5.79,3,11.17,6.34,15.6,11.14,2.39,1,3.41,3.48,5.26,5.07A88.38,88.38,0,0,1,522,96.08c1.88,16.33-2.82,31.14-8.76,45.86A175.34,175.34,0,0,1,500,167.36a9.21,9.21,0,0,0-.15,10.26c2.9,5.15,6.21,10.07,8.62,15.5,6,13.48-1.14,24.75-9.83,29.32a23.81,23.81,0,0,1-17.15,2,14,14,0,0,1-5.57-1.12c-8.8-4.49-8.72-4.43-14.94,3.12-2.3,2.78-4.49,5.81-8,7.33-9.74-5.91-20.14-9.78-31.65-10-2.42-.05-3-.78-3-3.12.1-8.7.48-17.43-1.59-26a64.92,64.92,0,0,0-1.78-6.46c-3.59-10.31-9.23-13.47-19.87-11-2.53.58-4,3-6.05,4.4-1.32.89-2.22,2.43-5,3.27a87.67,87.67,0,0,0,9.9-29.07c1.9-.59,3.28.58,4.61,1.54,9.15,6.57,19.48,8.52,30.57,9.43C445,168,458.17,163,469.74,152.78c7.58-6.66,13.7-14.53,17.44-24a8.27,8.27,0,0,0,.75-2.42c.72-11.91,1.94-23.82-1.19-35.63a31.64,31.64,0,0,0-7.68-13.45A116.13,116.13,0,0,0,462.25,61.9a34.48,34.48,0,0,0-20.54-6.49c-7.88-.1-15.77,0-23.66,0-7.72,0-14.1,3.55-20.12,7.85a62.06,62.06,0,0,0-22.84,31.18c-2.44,7.12-.76,14.55-1.24,21.82C373.7,118.42,374.48,120.8,372.63,122.66Z"/><path class="cls-7" d="M481.48,224.41c6.18,0,12.33.15,17.87-3.51,8.68-5.75,12-14.85,9-24.84-2-6.43-5.94-11.77-9.32-17.41-2.63-4.4-2.48-8.09.26-12.33a149.54,149.54,0,0,0,19.68-44.07c5.7-22.38,1.12-43.33-10.54-63-3.45-5.82-7.78-11-12.16-16.07-.12-.77.08-1.2,1-.88,11.37,10.47,18.27,23.71,23.48,38a102.49,102.49,0,0,1,5.72,23.26c.68,5.83-.4,11.5-1.78,17.11a188,188,0,0,1-20.93,51.71c-1.51,2.53-1.28,4.42,0,6.92,4.43,8.44,9,16.8,9.64,26.73.34,5.59-1.63,9.44-6.13,12.44-5.65,3.78-11.32,7.39-18.44,7.49A14.86,14.86,0,0,1,481.48,224.41Z"/><path class="cls-8" d="M453,233.74c4.14-4.73,8.8-9,11.95-14.56.91-1.59,2.09-1.09,3.23-.67a19.67,19.67,0,0,1,7.76,4.78c-9-3.92-18.23,8.43-15,17,.55,1.43.88,2.93,1.31,4.4C459.1,241.09,457.65,236,453,233.74Z"/><path class="cls-9" d="M497.2,42.33l-1,.88c-1.92-1.24-2.83-3.37-4.36-5C494.49,38.52,495.62,40.72,497.2,42.33Z"/><path class="cls-10" d="M220.48,311.53c-6.77,7.78-15.33,13.62-22.68,20.8-4.72,4.63-8.14,9.95-11.51,15.42-1,1.65-1.75,3-4.11,2.69-9.33-1.23-18.69-2.18-28-3.45-6.15-.85-6.18-1-4.64-7.16,2.28-9.1,6-17.82,7-27.28,1-9.29.27-18.59.46-27.88.05-2.13-1.08-2.63-7.69-4.21,0,6.83-.07,13.57,0,20.31A62.72,62.72,0,0,1,142.5,330c-2.24,4.47-5.19,8.57-7.74,12.89-1.46,2.48-3.11,2-4.75.39a25.32,25.32,0,0,0-7.58-5.56c-.57,4.48.64,8.4,1.21,12.37s.76,7.76-1.12,11.51c-3.19,6.34-8.4,8.93-15.28,7.43a2.52,2.52,0,0,1-2-1.87c-.77-2-1.84-3.8-2.5-5.79-1-3.17-2.68-4.84-6.48-3,1.16,3.63,2.23,7.46,3.62,11.18,1,2.62.27,3.32-2.42,3.75-6.63,1-13.09,1.25-19.55-1-4.76-1.68-6.82-5.08-7.19-9.85-.22-2.78-.49-5.56-.75-8.46-2.61.82-2.9,2.38-2.84,4.63.13,5.48,1.8,10.77,2,16.44-3-.06-5.3-1.46-7.78-2.21A3.14,3.14,0,0,1,59,370.22c-.73-4.56-2-9-1.9-13.74.08-5.69,1.9-10.47,6-14.33,3.81-3.56,7.72-7,11.54-10.55,9.55-8.85,14.3-20.44,19-32.24,9-22.7,18.41-45.24,27.88-67.76,3.37-8,3.85-8.2,11-3.89,19.4,11.67,39.83,11.19,60.66,5.43,20.47-5.67,34.75-23.44,35.1-44.63.15-8.77-2.92-17.4-4.86-26-1.8-8-5.07-15.45-8-23a74.17,74.17,0,0,1-4.3-20.1c-.14-1.49.42-4.18-1.84-3.84-2,.3-4.82,1-4.66,4.43.41,8.59,1.21,17,4.57,25.14,3.53,8.54,7.41,17,8.24,26.43a214.68,214.68,0,0,1,.41,27.43c-.27,6.53-4.62,11.41-8.95,15.85a42.32,42.32,0,0,1-32.06,13.32c-6.6-.08-13.2.68-19.79-.24-20.32-2.81-43.79-18-49.86-43.79-5.82-24.73.4-46.34,16.84-65.35,12.35-14.29,27.26-25.83,42.76-36.08,20.77-13.73,44.11-18.33,68.87-11.92,2.44.63,4.93,1.07,7.4,1.56,9,1.77,15.88,6.45,22.35,13.13,10.68,11,19.65,23.58,31.21,33.83,5.79,5.13,11.65,7.93,19.59,7.64,12.8-.47,25.64,0,38.46.16,2.75,0,5.4.82,8.8,2.08-3.72.45-6.52,1.29-9.21,1-5.18-.55-8.42,2.56-9.93,6.25-2,4.84-4.18,10.3.48,15.41,4.11,4.51,8.35,8.83,13.66,11.87,7,4,14.45,2.36,21.81,1.23,1.11-.17,2.19-.46,3.29-.64.23,0,.5.19,1,.41-5.81,12.16-11.66,24.29-20.95,34.25a39.41,39.41,0,0,1-17.23,10.32c-15.32,4.82-29.56,12.13-44.18,18.52-12.32,5.39-24.86,7.32-38.2,4.5a61,61,0,0,0-17.24-1.11,3.26,3.26,0,0,0-2.19,2.78c-1.41,11.87-5.18,23.3-6.32,35.24-.5,5.2-.35,10.38-.52,15.57-.18,5.35-1.24,6.07-6.05,4.16-8.31-3.3-8.79-2.91-8.36,5.82C223.61,300.51,223.21,306.23,220.48,311.53Z"/><path class="cls-11" d="M394.81,238.67c1.42.9,2.89,1.73,4.24,2.72s3.8.77,3.72,2.85-2.55,2.26-4.11,3.06a28.16,28.16,0,0,1-2.67,1.26c-5.28,2-8.92,5.19-8.58,11.66,4.8-.44,9-2.74,13.45-4.23a47.57,47.57,0,0,1,24.46-2c4.26.8,6.91,2.88,8.38,7.16,3.13,9.16,1,17.75-2.08,26.3-2.6,7.15-5.86,13.81-11.36,19.41-4.75,4.85-9.91,6.46-16.37,5.15a54.39,54.39,0,0,0-7.13-.51c-2.41-.17-3.18,1.85-3.79,3.39-.82,2,1.52,2,2.58,2.48,14.19,6.41,26,3.06,34.79-9.78,1.5-2.19,3-4.39,4.66-6.91,1.81,4.33,2.08,8.56,2.73,12.64s3.76,2.39,5.62,2.69c2.09.34,1.21-2.05,1.24-3.23.14-5.49.11-11,.14-16.49,1-3.17,2.32-1.4,3.36-.15,4.19,5,7.08,10.79,9.73,16.7a90.48,90.48,0,0,1,3.54,9.47c1.84,5.79,1.64,6.15-4,6.9-10.85,0-21.7.11-32.55.07a37.07,37.07,0,0,0-9.18,1.16c-8.42,2.13-14.19,13.5-12,23.27a77.4,77.4,0,0,0,4.81,13.92c1.07,2.48.47,3.27-2.16,3.26q-22.41-.08-44.83,0c-1.77,0-2.93-.34-3-2.49-.49-10.14-6.49-17.05-13.79-23.16-.86-.73-1.68-1.5-2.49-2.29-.38-.38-.68-.84-1.32-1.63,4.84-1.83,9.74-.44,14.29-1.77,2.83-.83,5.86-1.11,8.09-3.23,1-.93,1.92-2.42,1.51-3.76-.47-1.53-2.18-.8-3.33-.8-8.46,0-16.93.34-25.37,0-27.51-1.06-49-13.1-64-36.24a37.53,37.53,0,0,1-5.87-20.41c0-3.26.77-4.44,4.21-4.3a44,44,0,0,0,19.31-3.55c3.42-1.46,3.51-3,1.4-5.85-3.3-4.4-7.39-8-11.41-12.27,18.13-7.94,33.77-19.9,52.37-26,7-2.3,14.29-2.88,21.54-3.43a36.66,36.66,0,0,0,25.9-13.18c1.24-1.33,2.24-2.87,3.6-4.08,3.2-2.85,4.66-2.64,6,1.35A44.09,44.09,0,0,1,391.3,224c-.24,1.81-.17,3.68-.56,5.42C389.8,233.65,391.52,236.46,394.81,238.67Z"/><path class="cls-12" d="M372.63,122.66c0-7.6-.33-15.24.21-22.81.58-8.32,4.77-15.49,9.36-22.19,7.67-11.18,17.59-19.76,31.15-22.8,7.14-1.61,14.58-.64,21.89-.81,3.51-.09,7,.25,10.55.37,6.89.23,12.48,3.46,18,7.25C470.11,66,475.35,71.41,480.42,77c9.26,10.15,9.73,22.86,9.48,35.65a29.39,29.39,0,0,0-.25,2.94c1.06,14.07-6,24.46-15,34.12-13.23,14.12-29.33,19.73-48.55,18.27-12.08-.93-22.46-5.35-32.12-12.18-1.05-5.35-1.92-10.73-3.36-16-2-7.33-7.15-11.5-13.47-14.73C375.6,124.25,374.12,123.45,372.63,122.66Z"/><path class="cls-13" d="M220.48,311.53A91.83,91.83,0,0,0,222.13,289c-.17-3.35,1.08-4.41,4.23-3.29,1.72.62,3.49,1.09,5.17,1.78,5,2.06,5.2,2.08,4.95-3.13-.66-14.3,2.48-28.08,5.42-41.9a72.21,72.21,0,0,0,1.36-8.24c.22-2.34,1.23-3.32,3.52-3-1.12,4.08.94,7.39,4.75,7.6l20,1.05c0,.37.09.59.05.61-8.32,4.3-9.83,12.23-10.87,20.41-.73,5.7-1.67,11.38-2.22,17.09-1.33,13.88,4.51,25.14,13.27,35.24a102.18,102.18,0,0,0,13.59,12.62,52.38,52.38,0,0,1,4.16,3.56c4.89,4.77,4.81,5.25-1.25,8-8.54,3.92-17.51,6.84-25.8,11.37a8.64,8.64,0,0,0-5,7.51c-.73,6.95-.09,14.07-2.29,20.86-.89,2.73-1.72,5.45-5.28,5.42-3.89,0-8.27,1.13-9.39-4.83a57.62,57.62,0,0,0-3.38-10.37c-.43-1.09.11-3.13-2.1-3.11-1.62-1.9-.66-4.07-.44-6.05,1.65-15.39.2-30.81.85-46.53-3,.48-4.32,3.74-7.25,3.25l3.43-9.46c1.67-4.63.61-9.25-.43-13.73-.79-3.39-4-2-6.1-1.78s-1.14,2.15-.71,3.34C226.84,300.17,225.44,306.22,220.48,311.53Z"/><path class="cls-14" d="M546.79,188.69c7,0,11.21,4.12,13.87,9.89C572,223.16,559,249,532.6,255.89a206.62,206.62,0,0,0-47,18.24c-3.1,1.68-5.24,2.25-6.44-2.06-.42-1.48-1.87-2.77-2.18-4.42a5.58,5.58,0,0,1,1.75-5.56c5.06-5.21,11.36-8.21,17.74-11.1,8.23-3.73,16.06-8.12,22.89-14,5.85-5.07,8.73-11.81,9.94-19.45.87-5.41.22-10.95,1.65-16.29C532.65,194.82,540.33,188.72,546.79,188.69Z"/><path class="cls-14" d="M457.32,329.18c4.63-.55,4.39-2.95,3.07-6.61-3.26-9-6.91-17.8-12.86-25.42-.55-.7-1.08-3.19-2.8-.89.43-12.69-1.49-25.15-3.41-37.63-.78-5.07-2.9-8.61-7.89-10.32-3.44-1.18-6.65-3-10.27-3.73s-4.75-2.58-3.14-6a7.78,7.78,0,0,0,.76-2.41c.29-3,1.63-3.49,4.57-3,17.34,3,29.75,13.62,39.8,26.93,7.74,10.24,14.77,21.3,18.25,33.88,3.83,13.85,4.09,27.68-3.11,40.84-2.71,5-3.36,5.14-7.36,1.11C468.6,331.61,463.83,328.43,457.32,329.18Z"/><path class="cls-15" d="M228.16,314.89l8.49-6.73c-.77,19.16,1.32,37.66-1.65,56.06a39.27,39.27,0,0,0,1.77,17.07c.9,2.58,0,3.36-2,4.43-7.45,3.91-14.39,2.08-21.27-1.47a2.65,2.65,0,0,1-1.46-2.76c.07-6.31-.73-12.67,1.23-18.86.33-1.05,1.47-2.59-.81-2.84-1.63-.17-3.52-.49-3.53,2.22,0,6.62-.37,13.25-.18,19.86.09,3.32-.8,4.69-4.17,4.06-2.74-.51-5.65-.54-8.22-1.49-6.86-2.54-8.79-6-7.89-14a58.17,58.17,0,0,1,4.68-17.84c4.44-9.75,12.3-16.56,19.94-23.56C218.13,324.35,223.77,320.29,228.16,314.89Z"/><path class="cls-11" d="M332.88,360.14c0,3.93,0,7.53,0,11.13,0,1.61-.2,3.12-1.57,4.18-5.56,4.32-11.54,7.36-18.88,7.21-2.69-.06-3.33-1.08-3.29-3.52a208.08,208.08,0,0,0-.59-21.14c-4.33,2.58-4,7-5.14,10.77a5.92,5.92,0,0,0-.06,1.27c-.29,6.5-2.91,9.29-9.36,10-6,.64-9.74-2.07-11-8.34a43.35,43.35,0,0,1,.62-20.44c1.48-5.42,10.9-10.41,17.39-9a163.67,163.67,0,0,0,28.28,4c3.66.16,6.66,2.09,9.38,4.39,1.39,1.18,2.48,2.77,4,3.77,7.22,4.82,8,11.89,7.28,19.65-.15,1.63-.65,2.63-2.11,3.22-.39.16-.76.37-1.16.51-3.41,1.22-7.64,4-10.2,2.37-2.09-1.32.7-6.05,1.24-9.27C338.64,365,338.36,363.83,332.88,360.14Z"/><path class="cls-16" d="M450.74,353.9c0,5.82-.45,10.91.17,15.87.35,2.77-.59,3.86-2.51,5-5,2.88-10.4,1.8-15.69,1.84-1.88,0-1.41-1.66-1.65-2.84-1-4.93-.53-10-2-15.21-2.68,5.82-3.27,12.46-8.57,17.09-4.28-8.26-7.19-16.89-10.32-25.39-1.13-3.06,4.85-10.95,8.7-11.7a202.7,202.7,0,0,1,26.22-3.31c6.31-.4,12.23,1.53,18,3.72,4.8,1.81,10.37,12.52,9.37,17.74-.89,4.67-2.08,9.29-3.15,13.93-.16.67-.24,1.85-.56,1.93-3.61.85-7.08-.39-10.6-.93-2.08-.33-1.66-1.87-1.77-3.22-.24-3.08-.57-6.15-.72-9.23C455.49,356.3,452.83,356,450.74,353.9Z"/><path class="cls-14" d="M394.81,238.67c-3.91-.81-5.53-3-5.23-7.17.6-8.22,1.82-16.49-.75-24.62-.59-1.87-1.27-3.7-2.05-5.93l-7.4,5.57c4.89-9.21,11.18-17.05,20.79-21.81,2.49-1.23,3.62-.75,4.83,1.69,3.12,6.26,5.1,12.72,5,19.78-.19,9.28,1.11,18.43,2.34,27.59a47.43,47.43,0,0,1,0,5.82l-12.85-7.53a11.73,11.73,0,0,0-2.95-1.58c-1.79-.41-3.41.68-4.52,1.79-1.33,1.34.39,2.48,1.12,3.55S394.7,237.45,394.81,238.67Z"/><path class="cls-17" d="M452.32,172.94c-1-2.55.51-3.67,2.53-4.81,4.62-2.63,9.15-5.43,13.69-8.21,4.83-2.95,8-2.59,10.94,2.2,5.21,8.48,10,17.21,15,25.82.7,1.2,1.07,2.1-.5,3-7.05,4.24-13.84,9-22,11-2.56.63-4,.32-5.42-2.18-4-7.08-8.27-14-12.55-20.9C452.84,177,451.85,175.24,452.32,172.94Z"/><path class="cls-18" d="M487,215c-5.24.35-9.83.44-12.33-4.82-.61-1.3-1.3-2.08.45-2.85,7.5-3.32,14-8.5,21.71-11.47,2.35-.91,3.71-.64,3.4,2.21-.4,3.61,1.28,7.26-1.35,10.88C495.62,213.32,492.34,216.59,487,215Z"/><path class="cls-19" d="M278.57,128.38c1.21,3.4-.29,4.4-2.57,5.28-3.79,1.44-7.42,3.3-11.18,4.82a14.38,14.38,0,0,0-7.49,7.11c-1.59,3.18-3.69,4-7.08,3.45-8-1.26-8.61-2-4.54-9.16,7-12.31,16.83-17.42,31.2-15.42C280.37,125,278,127.64,278.57,128.38Z"/><path d="M337.48,252.13c5.41-.49,8.79,1.81,10.78,6.88,2.27,5.79,4.51,11.53,4.17,17.91a10.24,10.24,0,0,1-.65,3.7c-.74,1.72-1,4.7-3.17,4.06s-4.55-2-4.72-5.27c-.19-3.44-.46-6.91-2.59-10-3.9-5.74-8.8-8.83-16-7.8-2,.28-4.33.68-4.34-2.83,0-2.74-.14-5,3.51-5.25C328.84,253.19,333.16,252.6,337.48,252.13Z"/><path class="cls-20" d="M351.27,306.42c-10.44-3.56-18.51-10.17-27.78-14.54-5-2.34-9.88-4.74-15.18-6.2A21,21,0,0,1,302,282.4c-1.14-.79-2.49-1.72-1.72-3.41s2.33-.67,3.35-.4a65.75,65.75,0,0,1,13.1,4.47c8.89,4.55,17.8,9.06,26.58,13.8A15.81,15.81,0,0,1,351.27,306.42Z"/><path class="cls-21" d="M298.41,287.55a40.84,40.84,0,0,1,15.6,6.31,122.19,122.19,0,0,1,24.9,20.68c.7.77,3,1.45,1.15,3-1.34,1.13-2.87,1.94-4.79.12a189.38,189.38,0,0,0-18.78-15.57c-4.78-3.49-10.26-5.74-15.19-9-1.43-.94-2.93-1.8-3.6-3.41C297.32,288.83,296.88,287.35,298.41,287.55Z"/><path class="cls-22" d="M473.41,111.77c2,10.21-2.72,18.06-8.66,25.47a40.21,40.21,0,0,1-23.41,14.67c-25.6,5.47-53.12-10.66-53.91-41.22a42,42,0,0,1,32.38-41.93c22.65-5.16,43.59,4.91,52.12,26.43C474.08,100.62,473.24,106.28,473.41,111.77Z"/></svg>