<svg width="37" height="37" viewBox="0 0 37 37" fill="none" xmlns="http://www.w3.org/2000/svg">
<path d="M26.2388 1.35635L22.7373 4.85754L32.1421 14.2616L35.6435 10.7604C37.4522 8.95191 37.4522 6.0222 35.6435 4.21373L32.7932 1.35635C30.9846 -0.452117 28.0546 -0.452117 26.246 1.35635H26.2388ZM21.1023 6.4924L4.23888 23.3618C3.48649 24.1141 2.93668 25.0473 2.63283 26.0672L0.0718429 34.7696C-0.109018 35.3845 0.0573741 36.0428 0.505909 36.4912C0.954444 36.9398 1.61278 37.1061 2.22047 36.9325L10.9235 34.3717C11.9435 34.0679 12.8768 33.5181 13.6292 32.7658L30.5071 15.8964L21.1023 6.4924Z" fill="white"/>
</svg>
