<svg width="28" height="38" viewBox="0 0 28 38" fill="none" xmlns="http://www.w3.org/2000/svg">
<path d="M15.7281 37.1461C19.4688 32.3689 28 20.7905 28 14.287C28 6.39937 21.7292 0 14 0C6.27083 0 0 6.39937 0 14.287C0 20.7905 8.53125 32.3689 12.2719 37.1461C13.1687 38.2846 14.8312 38.2846 15.7281 37.1461ZM14 19.0493C11.426 19.0493 9.33333 16.9137 9.33333 14.287C9.33333 11.6603 11.426 9.52465 14 9.52465C16.574 9.52465 18.6667 11.6603 18.6667 14.287C18.6667 16.9137 16.574 19.0493 14 19.0493Z" fill="white"/>
</svg>
