<svg width="23" height="32" viewBox="0 0 23 32" fill="none" xmlns="http://www.w3.org/2000/svg">
<path d="M6.9 4.57143C5.62781 4.57143 4.6 5.59286 4.6 6.85714C4.6 8.12143 3.57219 9.14286 2.3 9.14286C1.02781 9.14286 0 8.12143 0 6.85714C0 3.07143 3.09063 0 6.9 0H13.8719C18.9103 0 23 4.06429 23 9.07143C23 12.8143 20.6856 16.1714 17.1781 17.5286L12.65 19.2786V20.5714C12.65 21.8357 11.6222 22.8571 10.35 22.8571C9.07781 22.8571 8.05 21.8357 8.05 20.5714V19.2786C8.05 17.3929 9.21437 15.7 10.9825 15.0214L15.5106 13.2714C17.25 12.5929 18.4 10.9286 18.4 9.07143C18.4 6.58571 16.3731 4.57143 13.8719 4.57143H6.9ZM10.35 32C8.76156 32 7.475 30.7214 7.475 29.1429C7.475 27.5643 8.76156 26.2857 10.35 26.2857C11.9384 26.2857 13.225 27.5643 13.225 29.1429C13.225 30.7214 11.9384 32 10.35 32Z" fill="white"/>
</svg>
