<svg width="22" height="12" viewBox="0 0 22 12" fill="none" xmlns="http://www.w3.org/2000/svg">
<path d="M5.87049 1.83C6.13403 2.44125 6.65729 3 7.33333 3H14.6667C15.3427 3 15.866 2.44125 16.1295 1.83C16.5917 0.75375 17.6802 0 18.9444 0C20.6326 0 22 1.3425 22 3C22 4.14 21.3507 5.13375 20.3958 5.64C20.2583 5.71125 20.1667 5.84625 20.1667 6C20.1667 6.15375 20.2583 6.28875 20.3958 6.36C21.3507 6.86625 22 7.86 22 9C22 10.6575 20.6326 12 18.9444 12C17.6802 12 16.5917 11.2463 16.1295 10.17C15.866 9.55875 15.3427 9 14.6667 9H7.33333C6.65729 9 6.13403 9.55875 5.87049 10.17C5.40833 11.2463 4.31979 12 3.05556 12C1.36736 12 0 10.6575 0 9C0 7.86 0.649306 6.86625 1.60417 6.36C1.74167 6.28875 1.83333 6.15375 1.83333 6C1.83333 5.84625 1.74167 5.71125 1.60417 5.64C0.649306 5.13375 0 4.14 0 3C0 1.3425 1.36736 0 3.05556 0C4.31979 0 5.40833 0.75375 5.87049 1.83Z" fill="black"/>
</svg>
