<svg width="22" height="25" viewBox="0 0 22 25" fill="none" xmlns="http://www.w3.org/2000/svg">
<path d="M6.28571 0C7.15491 0 7.85714 0.698242 7.85714 1.5625V3.125H14.1429V1.5625C14.1429 0.698242 14.8451 0 15.7143 0C16.5835 0 17.2857 0.698242 17.2857 1.5625V3.125H19.6429C20.9442 3.125 22 4.1748 22 5.46875V7.8125H0V5.46875C0 4.1748 1.0558 3.125 2.35714 3.125H4.71429V1.5625C4.71429 0.698242 5.41652 0 6.28571 0ZM0 9.375H22V22.6562C22 23.9502 20.9442 25 19.6429 25H2.35714C1.0558 25 0 23.9502 0 22.6562V9.375ZM3.14286 13.2812V14.8438C3.14286 15.2734 3.49643 15.625 3.92857 15.625H5.5C5.93214 15.625 6.28571 15.2734 6.28571 14.8438V13.2812C6.28571 12.8516 5.93214 12.5 5.5 12.5H3.92857C3.49643 12.5 3.14286 12.8516 3.14286 13.2812ZM9.42857 13.2812V14.8438C9.42857 15.2734 9.78214 15.625 10.2143 15.625H11.7857C12.2179 15.625 12.5714 15.2734 12.5714 14.8438V13.2812C12.5714 12.8516 12.2179 12.5 11.7857 12.5H10.2143C9.78214 12.5 9.42857 12.8516 9.42857 13.2812ZM16.5 12.5C16.0679 12.5 15.7143 12.8516 15.7143 13.2812V14.8438C15.7143 15.2734 16.0679 15.625 16.5 15.625H18.0714C18.5036 15.625 18.8571 15.2734 18.8571 14.8438V13.2812C18.8571 12.8516 18.5036 12.5 18.0714 12.5H16.5ZM3.14286 19.5312V21.0938C3.14286 21.5234 3.49643 21.875 3.92857 21.875H5.5C5.93214 21.875 6.28571 21.5234 6.28571 21.0938V19.5312C6.28571 19.1016 5.93214 18.75 5.5 18.75H3.92857C3.49643 18.75 3.14286 19.1016 3.14286 19.5312ZM10.2143 18.75C9.78214 18.75 9.42857 19.1016 9.42857 19.5312V21.0938C9.42857 21.5234 9.78214 21.875 10.2143 21.875H11.7857C12.2179 21.875 12.5714 21.5234 12.5714 21.0938V19.5312C12.5714 19.1016 12.2179 18.75 11.7857 18.75H10.2143ZM15.7143 19.5312V21.0938C15.7143 21.5234 16.0679 21.875 16.5 21.875H18.0714C18.5036 21.875 18.8571 21.5234 18.8571 21.0938V19.5312C18.8571 19.1016 18.5036 18.75 18.0714 18.75H16.5C16.0679 18.75 15.7143 19.1016 15.7143 19.5312Z" fill="black"/>
</svg>
