<svg width="22" height="20" viewBox="0 0 22 20" fill="none" xmlns="http://www.w3.org/2000/svg">
<path d="M9.73203 2.71697C10.3466 4.63235 9.71914 6.56558 8.33094 7.03884C6.94275 7.51211 5.31817 6.34234 4.70358 4.42697C4.08899 2.51159 4.71647 0.578356 6.10467 0.105093C7.49287 -0.36817 9.11744 0.801593 9.73203 2.71697ZM4.31248 7.43621C5.12477 8.88278 4.92707 10.566 3.8741 11.1911C2.82113 11.8161 1.3083 11.1509 0.500306 9.7043C-0.307685 8.25772 -0.118581 6.57451 0.934386 5.94945C1.98735 5.32438 3.50019 5.98963 4.30818 7.43621H4.31248ZM2.97156 16.4818C5.22362 10.1731 9.22489 8.57025 10.9999 8.57025C12.7749 8.57025 16.7762 10.1731 19.0282 16.4818C19.1829 16.9149 19.2517 17.3792 19.2517 17.8435V17.915C19.2517 19.0669 18.3535 20 17.2446 20C16.7504 20 16.2604 19.9375 15.7834 19.8125L12.0013 18.8302C11.3437 18.6606 10.6561 18.6606 9.9985 18.8302L6.21641 19.8125C5.73935 19.9375 5.2494 20 4.75515 20C3.64631 20 2.74807 19.0669 2.74807 17.915V17.8435C2.74807 17.3792 2.81683 16.9149 2.97156 16.4818ZM18.1257 11.1911C17.0727 10.566 16.875 8.88278 17.6873 7.43621C18.4996 5.98963 20.0081 5.32438 21.0611 5.94945C22.1141 6.57451 22.3118 8.25772 21.4995 9.7043C20.6872 11.1509 19.1787 11.8161 18.1257 11.1911ZM13.325 7.03884C11.9368 6.56558 11.3093 4.63235 11.9239 2.71697C12.5385 0.801593 14.1631 -0.36817 15.5513 0.105093C16.9395 0.578356 17.567 2.51159 16.9524 4.42697C16.3378 6.34234 14.7132 7.51211 13.325 7.03884Z" fill="black"/>
</svg>
