<svg width="24" height="21" viewBox="0 0 24 21" fill="none" xmlns="http://www.w3.org/2000/svg">
<path d="M12.8994 6.50098L13.862 0.812109C13.9411 0.344531 14.3537 0 14.837 0C15.1495 0 15.4412 0.143555 15.6287 0.389648L16.3329 1.3125H18.5039C19.0331 1.3125 19.5414 1.52168 19.9165 1.89082L20.6665 2.625H22.9999C23.5541 2.625 24 3.06387 24 3.60938V4.59375C24 6.40664 22.5083 7.875 20.6665 7.875H19.3331H18.6664H17.7788L17.5663 9.12598L12.8994 6.50098ZM17.333 10.5041V19.6875C17.333 20.4135 16.7371 21 15.9996 21H14.6662C13.9286 21 13.3328 20.4135 13.3328 19.6875V14.9625C12.3327 15.467 11.1993 15.75 9.99926 15.75C8.7992 15.75 7.66581 15.467 6.66575 14.9625V19.6875C6.66575 20.4135 6.06989 21 5.33235 21H3.99895C3.26141 21 2.66554 20.4135 2.66554 19.6875V10.2457C1.46548 9.79863 0.523764 8.79785 0.198747 7.51816L0.0404049 6.88242C-0.138771 6.18105 0.294585 5.46738 1.01129 5.29102C1.72799 5.11465 2.44887 5.54121 2.62804 6.24668L2.79055 6.88242C2.93639 7.46484 3.46975 7.875 4.08228 7.875H5.33235H5.99905H12.6577L17.333 10.5041ZM19.3331 3.28125C19.3331 2.92031 19.0331 2.625 18.6664 2.625C18.2997 2.625 17.9997 2.92031 17.9997 3.28125C17.9997 3.64219 18.2997 3.9375 18.6664 3.9375C19.0331 3.9375 19.3331 3.64219 19.3331 3.28125Z" fill="black"/>
</svg>
