<svg width="14" height="24" viewBox="0 0 14 24" fill="none" xmlns="http://www.w3.org/2000/svg">
<path d="M3.95175 17.248C3.95175 16.48 4.03708 15.776 4.20775 15.136C4.39975 14.496 4.68775 13.92 5.07175 13.408C5.47708 12.8747 5.99975 12.4053 6.63975 12C7.02375 11.744 7.46108 11.4773 7.95175 11.2C8.46375 10.9227 8.94375 10.6027 9.39175 10.24C9.86108 9.856 10.2451 9.408 10.5438 8.896C10.8424 8.36267 10.9918 7.73333 10.9918 7.008C10.9918 6.19733 10.7998 5.52533 10.4158 4.992C10.0531 4.43733 9.57308 4.02133 8.97575 3.744C8.37842 3.46667 7.73842 3.328 7.05575 3.328C6.35175 3.328 5.69042 3.46667 5.07175 3.744C4.45308 4.02133 3.90908 4.39467 3.43975 4.864C2.99175 5.312 2.61842 5.81333 2.31975 6.368L0.43175 5.12C0.81575 4.24533 1.34908 3.49867 2.03175 2.88C2.73575 2.26133 3.52508 1.792 4.39975 1.472C5.27442 1.152 6.18108 0.991999 7.11975 0.991999C7.90908 0.991999 8.67708 1.12 9.42375 1.376C10.1918 1.61067 10.8744 1.984 11.4718 2.496C12.0904 3.008 12.5811 3.648 12.9438 4.416C13.3064 5.184 13.4878 6.09067 13.4878 7.136C13.4878 7.94667 13.3811 8.64 13.1678 9.216C12.9544 9.792 12.6558 10.2933 12.2718 10.72C11.9091 11.1467 11.4824 11.52 10.9918 11.84C10.5011 12.16 9.98908 12.4693 9.45575 12.768C8.94375 13.0453 8.44242 13.3547 7.95175 13.696C7.48242 14.0373 7.08775 14.4853 6.76775 15.04C6.46908 15.5733 6.31975 16.3093 6.31975 17.248H3.95175ZM4.01575 24V20.288H6.38375V24H4.01575Z" fill="black"/>
</svg>
