<svg width="23" height="24" viewBox="0 0 23 24" fill="none" xmlns="http://www.w3.org/2000/svg">
<path d="M4.24286 0.257812L3.03482 2.23125C2.84821 2.53594 2.75 2.8875 2.75 3.24375V3.375C2.75 4.41094 3.62902 5.25 4.71429 5.25C5.79955 5.25 6.67857 4.41094 6.67857 3.375V3.24375C6.67857 2.8875 6.58036 2.54062 6.39375 2.23125L5.18571 0.257812C5.0875 0.0984375 4.91071 0 4.71429 0C4.51786 0 4.34107 0.0984375 4.24286 0.257812ZM10.5286 0.257812L9.32054 2.23125C9.13393 2.53594 9.03571 2.8875 9.03571 3.24375V3.375C9.03571 4.41094 9.91473 5.25 11 5.25C12.0853 5.25 12.9643 4.41094 12.9643 3.375V3.24375C12.9643 2.8875 12.8661 2.54062 12.6795 2.23125L11.4714 0.257812C11.3732 0.0984375 11.1964 0 11 0C10.8036 0 10.6268 0.0984375 10.5286 0.257812ZM15.6062 2.23125C15.4196 2.53594 15.3214 2.8875 15.3214 3.24375V3.375C15.3214 4.41094 16.2004 5.25 17.2857 5.25C18.371 5.25 19.25 4.41094 19.25 3.375V3.24375C19.25 2.8875 19.1518 2.54062 18.9652 2.23125L17.7571 0.257812C17.6589 0.0984375 17.4821 0 17.2857 0C17.0893 0 16.9125 0.0984375 16.8143 0.257812L15.6062 2.23125ZM6.28571 8.25C6.28571 7.42031 5.58348 6.75 4.71429 6.75C3.84509 6.75 3.14286 7.42031 3.14286 8.25V10.5C1.40937 10.5 0 11.8453 0 13.5V16.8281C0.407589 17.0719 0.888839 17.25 1.41429 17.25C2.07723 17.25 2.75 16.9641 3.3 16.6219C3.56518 16.4578 3.78616 16.2891 3.93839 16.1672C4.01205 16.1062 4.07098 16.0547 4.11027 16.0219C4.12991 16.0031 4.14464 15.9937 4.14955 15.9844L4.15446 15.9797C4.3067 15.8297 4.51786 15.75 4.73884 15.7547C4.95982 15.7594 5.16116 15.8531 5.30848 16.0078L5.31339 16.0125C5.3183 16.0172 5.33304 16.0312 5.34777 16.0453C5.38214 16.0781 5.43125 16.125 5.5 16.1859C5.6375 16.3078 5.83393 16.4719 6.07946 16.6312C6.58036 16.9641 7.20893 17.2453 7.86205 17.2453C8.51518 17.2453 9.14375 16.9641 9.64464 16.6312C9.89018 16.4672 10.0866 16.3078 10.2241 16.1859C10.2929 16.125 10.342 16.0781 10.3763 16.0453C10.3911 16.0312 10.4058 16.0172 10.4107 16.0125L10.4156 16.0078C10.5629 15.8438 10.779 15.7547 11.0049 15.7547C11.2308 15.7547 11.4469 15.8484 11.5942 16.0078L11.5991 16.0125C11.604 16.0172 11.6187 16.0312 11.6335 16.0453C11.6679 16.0781 11.717 16.125 11.7857 16.1859C11.9232 16.3078 12.1196 16.4719 12.3652 16.6312C12.8661 16.9641 13.4946 17.2453 14.1478 17.2453C14.8009 17.2453 15.4295 16.9641 15.9304 16.6312C16.1759 16.4672 16.3723 16.3078 16.5098 16.1859C16.5786 16.125 16.6277 16.0781 16.6621 16.0453C16.6768 16.0312 16.6915 16.0172 16.6964 16.0125L16.7013 16.0078C16.8438 15.8484 17.05 15.7594 17.271 15.7547C17.492 15.75 17.6982 15.8297 17.8554 15.9797L17.8603 15.9844C17.8701 15.9937 17.8799 16.0031 17.8996 16.0219C17.9388 16.0547 17.9929 16.1062 18.0714 16.1672C18.2237 16.2891 18.4397 16.4578 18.7098 16.6219C19.2598 16.9641 19.9326 17.25 20.5955 17.25C21.121 17.25 21.6022 17.0672 22.0098 16.8281V13.5C22.0098 11.8453 20.6004 10.5 18.867 10.5V8.25C18.867 7.42031 18.1647 6.75 17.2955 6.75C16.4263 6.75 15.7241 7.42031 15.7241 8.25V10.5H12.5714V8.25C12.5714 7.42031 11.8692 6.75 11 6.75C10.1308 6.75 9.42857 7.42031 9.42857 8.25V10.5H6.28571V8.25ZM22 18.4969C21.5826 18.6516 21.1063 18.75 20.5857 18.75C19.4808 18.75 18.5036 18.2859 17.8455 17.8781C17.6442 17.7516 17.4625 17.625 17.3103 17.5125C17.1728 17.625 17.0107 17.7469 16.829 17.8641C16.1955 18.2812 15.2527 18.75 14.1429 18.75C13.033 18.75 12.0902 18.2812 11.4616 17.8641C11.2897 17.7516 11.1326 17.6344 11 17.5266C10.8674 17.6344 10.7103 17.7469 10.5384 17.8641C9.90982 18.2812 8.96696 18.75 7.85714 18.75C6.74732 18.75 5.80446 18.2812 5.17589 17.8641C4.9942 17.7422 4.83214 17.6203 4.69464 17.5125C4.54241 17.625 4.36071 17.7516 4.15937 17.8781C3.49643 18.2859 2.5192 18.75 1.41429 18.75C0.89375 18.75 0.417411 18.6469 0 18.4969V22.5C0 23.3297 0.702232 24 1.57143 24H20.4286C21.2978 24 22 23.3297 22 22.5V18.4969Z" fill="black"/>
</svg>
